<svg xmlns="http://www.w3.org/2000/svg" viewBox="0 0 512 512" role="img" aria-label="Money Coach">
  <defs>
    <linearGradient id="bg" x1="74" y1="38" x2="430" y2="468" gradientUnits="userSpaceOnUse">
      <stop offset="0" stop-color="#115f52"/>
      <stop offset="0.52" stop-color="#0b4038"/>
      <stop offset="1" stop-color="#06251f"/>
    </linearGradient>
    <linearGradient id="gold" x1="142" y1="152" x2="372" y2="360" gradientUnits="userSpaceOnUse">
      <stop offset="0" stop-color="#fff0c5"/>
      <stop offset="0.55" stop-color="#e4bd70"/>
      <stop offset="1" stop-color="#b87835"/>
    </linearGradient>
  </defs>
  <rect width="512" height="512" rx="96" fill="url(#bg)"/>
  <path d="M128 150c0-17 13-30 30-30h196c17 0 30 13 30 30v212c0 17-13 30-30 30H158c-17 0-30-13-30-30V150Z" fill="none" stroke="#f8edcf" stroke-width="20"/>
  <path d="M168 324V208l50 82 50-82v116" fill="none" stroke="url(#gold)" stroke-width="28" stroke-linecap="round" stroke-linejoin="round"/>
  <path d="M360 222c-15-17-43-24-68-9-39 23-39 83 0 106 25 15 53 8 68-9" fill="none" stroke="#f8edcf" stroke-width="28" stroke-linecap="round" stroke-linejoin="round"/>
  <path d="M168 358h176" stroke="#d6a75e" stroke-width="18" stroke-linecap="round"/>
</svg>
